# xmcd CD database file
#
# Track frame offsets:
#	150
#	23328
#	49967
#	62354
#	78157
#	105089
#	126180
#
# Disc length: 1912 seconds
#
# Revision: 0
# Processed by: cddbd v1.5.2PL0 Copyright (c) Steve Scherf et al.
# Submitted via: CDex 1.70beta2
#
DISCID=43077607
DTITLE=Takeshi Shibuya - Solo Famous Melodies
DYEAR=2007
DGENRE=Jazz
TTITLE0=Danny Boy
TTITLE1=Medley: Jeanie with the Light Brown Hair - Day Dream - Snowfall
TTITLE2=Just a Gigolo
TTITLE3=My Man
TTITLE4=Polka Dots and Moonbeams
TTITLE5=Smoke Gets in Your Eyes
TTITLE6=I can't Get Started
EXTD=YEAR: 2007
EXTT0=
EXTT1=
EXTT2=
EXTT3=
EXTT4=
EXTT5=
EXTT6=
PLAYORDER=
